<?xml version="1.0" standalone="no"?>
<!DOCTYPE svg PUBLIC "-//W3C//DTD SVG 20010904//EN"
 "http://www.w3.org/TR/2001/REC-SVG-20010904/DTD/svg10.dtd">
<svg version="1.0" xmlns="http://www.w3.org/2000/svg"
 width="361.000000pt" height="361.000000pt" viewBox="0 0 361.000000 361.000000"
 preserveAspectRatio="xMidYMid meet">
<metadata>
Created by potrace 1.11, written by Peter Selinger 2001-2013
</metadata>
<g transform="translate(0.000000,361.000000) scale(0.100000,-0.100000)"
fill="#000000" stroke="none">
<path d="M2059 3026 c-2 -2 -44 -6 -94 -10 -49 -4 -105 -9 -122 -11 -41 -6
-76 -11 -133 -20 -25 -3 -85 -15 -135 -27 -49 -11 -97 -21 -105 -23 -45 -10
-231 -74 -337 -116 -240 -95 -481 -236 -656 -382 -147 -124 -350 -379 -366
-461 -5 -23 -23 -72 -41 -110 -52 -114 -67 -188 -65 -339 1 -102 6 -147 21
-188 62 -180 230 -378 432 -509 45 -29 82 -57 82 -62 0 -4 3 -7 8 -6 17 3 61
-15 66 -28 3 -8 14 -14 24 -14 10 0 22 -4 27 -9 6 -4 56 -23 113 -41 83 -26
102 -36 98 -49 -5 -13 -4 -13 8 2 15 19 31 23 20 5 -6 -10 -4 -10 8 0 12 9 18
10 23 2 4 -6 13 -9 21 -6 8 3 14 -1 14 -9 0 -7 4 -17 10 -20 6 -3 7 1 4 9 -4
11 0 16 11 16 10 0 13 -4 9 -12 -5 -9 -2 -9 9 1 15 12 17 11 18 -5 0 -11 3
-14 6 -6 2 6 12 12 21 12 15 0 15 -2 2 -10 -9 -6 -10 -10 -3 -10 6 0 15 5 18
10 4 6 13 7 23 1 21 -11 610 -12 669 -2 23 5 45 6 48 3 12 -12 36 -10 41 3 6
15 38 12 63 -7 14 -11 14 -10 -1 8 -17 19 -16 20 7 22 14 1 29 -6 35 -16 10
-15 11 -15 7 3 -6 32 57 28 84 -5 16 -20 18 -21 10 -4 -6 12 -7 25 -3 29 4 5
1 5 -5 1 -7 -4 -13 -2 -13 3 0 10 14 15 34 12 4 -1 15 4 24 11 12 10 14 10 8
0 -4 -7 -2 -12 4 -12 6 0 9 -4 6 -9 -3 -5 1 -12 9 -15 13 -4 13 -2 5 14 -14
26 -13 29 8 28 9 0 25 3 34 7 14 5 16 2 13 -14 -2 -11 0 -23 5 -26 5 -3 7 4 5
15 -2 11 1 20 6 20 6 0 7 5 3 11 -4 8 -1 8 12 1 11 -6 22 -10 27 -11 4 -1 8
-1 10 -2 1 0 11 -2 23 -3 16 -2 20 2 16 17 -4 14 -7 16 -13 5 -7 -10 -9 -10
-9 2 0 9 -3 11 -8 5 -4 -5 -14 -11 -22 -13 -11 -2 -10 1 3 12 10 8 26 13 35
11 9 -1 20 2 23 8 4 5 18 10 33 10 14 0 26 4 26 10 0 6 3 8 6 5 3 -4 17 0 31
7 14 7 32 11 41 8 11 -5 13 -3 7 8 -4 8 -5 11 0 7 4 -4 15 -2 23 5 9 6 13 7
10 2 -4 -6 3 -22 14 -35 l20 -25 -15 26 c-16 27 -10 49 14 52 8 2 20 6 27 10
6 5 12 5 12 0 0 -4 5 -1 11 7 7 10 9 11 7 2 -2 -8 -7 -13 -12 -12 -9 2 -26
-19 -26 -32 0 -5 5 -8 11 -8 5 0 8 4 5 9 -5 8 16 23 36 25 11 1 38 42 33 50
-3 3 -2 4 2 1 3 -3 15 3 25 12 15 13 21 14 31 4 9 -10 9 -11 -4 -6 -10 4 -20
1 -24 -5 -4 -7 2 -9 19 -6 14 2 27 -1 30 -7 3 -9 5 -9 5 0 1 7 8 10 19 7 14
-5 14 -4 2 4 -8 6 -17 9 -21 6 -4 -2 -9 2 -12 10 -3 8 1 17 9 20 8 3 13 2 10
-3 -3 -5 3 -11 15 -14 16 -4 18 -3 8 9 -7 9 -8 14 -1 14 6 0 15 -7 19 -15 7
-12 10 -11 21 5 8 14 9 21 0 26 -6 4 -8 3 -4 -4 3 -6 0 -9 -9 -8 -24 4 -27 13
-6 19 12 3 31 -3 45 -14 27 -21 36 -24 36 -9 0 6 -4 9 -9 8 -5 -2 -9 2 -9 7 0
6 3 9 7 9 3 -1 17 -4 31 -8 l25 -6 -25 12 c-14 7 -28 17 -32 23 -5 6 -8 5 -8
-3 0 -7 -5 -10 -12 -6 -7 5 -8 3 -3 -6 5 -9 4 -11 -3 -6 -16 10 -16 11 14 31
15 9 24 13 21 8 -3 -4 6 -14 20 -20 24 -12 25 -12 9 6 -12 13 -14 21 -7 26 6
3 11 3 11 -1 0 -4 6 0 13 11 11 14 16 15 22 5 6 -9 4 -11 -5 -5 -8 5 -11 4 -6
-3 3 -5 0 -12 -6 -15 -7 -2 -10 -8 -5 -13 4 -4 15 2 23 15 12 16 19 19 29 11
10 -8 12 -4 9 18 -4 33 30 63 40 36 3 -9 3 -21 -1 -26 -3 -7 -1 -8 5 -4 7 4
12 14 12 22 0 17 16 19 24 2 2 -7 3 3 1 23 -3 26 1 38 16 47 11 7 19 8 19 2 0
-5 -5 -10 -11 -10 -5 0 -7 -5 -3 -12 4 -7 3 -8 -4 -4 -8 5 -10 1 -5 -9 5 -13
7 -14 14 -3 8 12 10 11 13 -11 0 -5 6 -13 11 -18 6 -4 7 -4 2 1 -4 5 1 19 10
30 14 15 14 18 2 8 -16 -12 -29 -7 -29 10 0 5 5 6 12 2 7 -4 8 -3 4 4 -4 6 -2
21 4 32 9 16 15 18 30 10 15 -8 21 -6 30 10 6 11 15 18 21 15 5 -4 9 -3 8 2
-3 19 2 34 10 28 5 -3 13 0 17 6 4 8 3 9 -4 5 -7 -4 -12 -1 -12 9 0 12 4 14
19 5 29 -15 38 -12 15 6 -13 11 -15 17 -6 20 6 3 10 10 7 15 -4 5 2 6 11 2 14
-5 16 -3 11 11 -4 10 -3 15 3 11 6 -3 13 1 16 9 3 9 11 16 16 16 6 0 6 -6 -1
-14 -10 -11 -8 -16 9 -21 12 -4 24 -4 27 -1 4 3 -1 6 -9 6 -25 0 -19 48 8 69
13 10 20 22 16 26 -4 5 -1 5 7 0 12 -7 11 -10 -4 -22 -17 -12 -17 -13 -2 -13
16 0 20 8 18 40 0 8 16 33 36 55 21 24 29 29 20 14 -13 -21 -13 -26 -1 -26 8
0 12 3 9 5 -3 3 0 11 6 18 6 8 9 21 5 29 -3 9 -2 13 4 10 6 -3 11 -1 11 4 1 6
2 15 3 20 0 6 11 19 24 31 12 12 20 25 17 31 -4 5 1 9 10 9 11 0 15 5 11 15
-7 19 3 19 34 -1 18 -11 17 -9 -5 10 l-29 25 27 10 c15 6 27 13 27 15 0 3 -7
3 -16 -1 -14 -5 -14 -3 -3 15 7 11 18 18 24 14 5 -3 3 2 -5 13 -14 17 -13 17
10 10 25 -7 25 -7 5 10 -20 16 -20 16 2 12 13 -3 26 0 30 5 3 6 2 8 -3 5 -6
-3 -16 -2 -24 3 -12 7 -11 14 9 41 13 17 19 29 13 25 -8 -5 -8 1 -2 21 5 15
11 42 14 58 2 17 5 30 6 30 1 0 4 35 7 78 3 50 0 83 -7 92 -6 7 -13 33 -16 57
-7 64 -9 72 -17 86 -5 6 -6 12 -3 12 3 0 -1 18 -9 40 -8 22 -11 40 -7 40 4 0
0 5 -8 10 -13 9 -13 12 2 24 23 17 47 74 50 118 3 49 -17 88 -65 127 -39 31
-45 33 -95 27 l-54 -6 -66 61 c-248 227 -624 355 -1073 365 -97 2 -178 2 -180
0z m1080 -1871 c-13 -19 -25 -30 -27 -25 -2 5 6 19 17 32 12 12 21 26 21 32 0
5 3 6 6 3 4 -4 -4 -22 -17 -42z m-139 -115 c-8 -5 -17 -6 -20 -3 -3 3 1 8 8
10 6 3 9 10 6 16 -4 7 -1 7 7 -1 12 -11 12 -14 -1 -22z m-70 -44 c0 -2 -7 -6
-15 -10 -8 -3 -15 -1 -15 4 0 6 7 10 15 10 8 0 15 -2 15 -4z m-336 -181 c-4
-8 -8 -15 -10 -15 -2 0 -4 7 -4 15 0 8 4 15 10 15 5 0 7 -7 4 -15z"/>
<path d="M3575 1750 c3 -5 8 -10 11 -10 2 0 4 5 4 10 0 6 -5 10 -11 10 -5 0
-7 -4 -4 -10z"/>
<path d="M3556 1652 c-3 -5 1 -9 9 -9 8 0 12 4 9 9 -3 4 -7 8 -9 8 -2 0 -6 -4
-9 -8z"/>
<path d="M3550 1616 c0 -2 7 -7 16 -10 8 -3 12 -2 9 4 -6 10 -25 14 -25 6z"/>
<path d="M3474 1539 c-3 -6 -2 -15 3 -20 5 -5 9 -1 9 11 0 23 -2 24 -12 9z"/>
<path d="M3433 1496 c-3 -6 -2 -7 2 -3 5 4 14 -3 21 -15 l12 -23 -1 26 c-2 26
-23 35 -34 15z"/>
<path d="M3425 1459 c-11 -16 -1 -19 13 -3 7 8 8 14 3 14 -5 0 -13 -5 -16 -11z"/>
<path d="M3450 1431 c0 -6 4 -13 10 -16 6 -3 7 1 4 9 -7 18 -14 21 -14 7z"/>
<path d="M3350 1385 c-7 -9 -10 -18 -6 -22 3 -3 6 0 6 8 0 11 2 12 9 1 7 -11
9 -11 14 2 8 21 -8 29 -23 11z"/>
<path d="M3286 1312 c-2 -4 -1 -14 4 -22 7 -11 9 -9 7 8 -1 24 -3 26 -11 14z"/>
<path d="M3240 1249 c0 -7 -8 -18 -17 -26 -16 -13 -16 -13 3 -4 12 6 24 8 27
5 3 -3 3 3 0 15 -6 23 -13 28 -13 10z"/>
<path d="M3090 1092 c0 -5 7 -9 15 -9 8 0 12 4 9 9 -3 4 -9 8 -15 8 -5 0 -9
-4 -9 -8z"/>
<path d="M2950 1009 c0 -5 5 -7 10 -4 6 3 10 8 10 11 0 2 -4 4 -10 4 -5 0 -10
-5 -10 -11z"/>
<path d="M2779 878 c-5 -16 -4 -46 2 -42 4 2 7 13 6 24 -1 17 -5 26 -8 18z"/>
<path d="M2627 826 c-8 -21 12 -32 27 -15 6 8 10 13 7 12 -2 -2 -10 2 -16 7
-9 8 -14 6 -18 -4z"/>
<path d="M2507 783 c-10 -9 -9 -23 1 -23 5 0 9 7 9 15 0 17 -1 18 -10 8z"/>
<path d="M2630 786 c0 -2 8 -10 18 -17 15 -13 16 -12 3 4 -13 16 -21 21 -21
13z"/>
<path d="M2566 772 c-3 -5 1 -9 9 -9 8 0 15 4 15 9 0 4 -4 8 -9 8 -6 0 -12 -4
-15 -8z"/>
<path d="M2413 735 c-3 -9 -3 -19 1 -22 3 -4 6 1 6 11 0 10 5 14 12 10 7 -4 8
-3 4 4 -10 16 -15 15 -23 -3z"/>
<path d="M2453 735 c0 -8 4 -12 9 -9 4 3 8 0 8 -7 0 -7 2 -10 5 -7 7 7 -5 38
-14 38 -4 0 -8 -7 -8 -15z"/>
<path d="M2380 725 c-7 -9 -10 -18 -7 -21 3 -3 10 4 17 15 13 25 8 27 -10 6z"/>
<path d="M2314 706 c-16 -12 -17 -17 -6 -28 11 -11 12 -10 7 5 -4 10 -2 17 4
17 6 0 11 -4 11 -10 0 -15 17 -12 23 4 4 11 1 13 -10 9 -11 -4 -14 -2 -9 5 10
16 4 15 -20 -2z"/>
<path d="M2390 692 c0 -5 7 -9 15 -9 8 0 12 4 9 9 -3 4 -9 8 -15 8 -5 0 -9 -4
-9 -8z"/>
<path d="M753 655 c0 -8 4 -12 9 -9 5 3 6 10 3 15 -9 13 -12 11 -12 -6z"/>
<path d="M2136 651 c9 -9 34 -9 34 -1 0 5 -9 8 -20 7 -10 -1 -17 -3 -14 -6z"/>
<path d="M2210 652 c0 -4 9 -8 20 -9 11 -1 20 2 20 5 0 4 -9 8 -20 9 -11 1
-20 -2 -20 -5z"/>
<path d="M2067 633 c3 -7 9 -13 13 -13 4 0 10 6 13 13 3 7 -3 13 -13 13 -10 0
-16 -6 -13 -13z"/>
<path d="M1980 625 c0 -1 8 -9 17 -16 11 -10 14 -10 9 -1 -4 6 -3 12 3 12 5 0
12 -5 14 -10 3 -6 4 -5 3 2 -2 10 -46 22 -46 13z"/>
<path d="M826 608 c3 -5 10 -6 15 -3 13 9 11 12 -6 12 -8 0 -12 -4 -9 -9z"/>
<path d="M1936 605 c4 -8 8 -15 10 -15 2 0 4 7 4 15 0 8 -4 15 -10 15 -5 0 -7
-7 -4 -15z"/>
<path d="M2095 610 c-3 -6 1 -7 9 -4 18 7 21 14 7 14 -6 0 -13 -4 -16 -10z"/>
<path d="M1876 602 c-3 -5 1 -9 9 -9 8 0 12 4 9 9 -3 4 -7 8 -9 8 -2 0 -6 -4
-9 -8z"/>
</g>
</svg>
